<?xml version="1.0" encoding="utf-8"?>
<!-- Generator: Adobe Illustrator 26.1.0, SVG Export Plug-In . SVG Version: 6.00 Build 0)  -->
<svg version="1.1" id="Layer_1" xmlns="http://www.w3.org/2000/svg" xmlns:xlink="http://www.w3.org/1999/xlink" x="0px" y="0px"
	 viewBox="0 0 24 24" style="enable-background:new 0 0 24 24;" xml:space="preserve">
<style type="text/css">
	.st0{fill:#D9D9D9;filter:url(#Adobe_OpacityMaskFilter);}
	.st1{mask:url(#mask0_2316_585_00000126316428096612435690000012781726197995729545_);}
	.st2{fill:#FFFFFF;}
</style>
<defs>
	<filter id="Adobe_OpacityMaskFilter" filterUnits="userSpaceOnUse" x="2" y="2.6" width="20" height="18.4">
		<feColorMatrix  type="matrix" values="1 0 0 0 0  0 1 0 0 0  0 0 1 0 0  0 0 0 1 0"/>
	</filter>
</defs>
<mask maskUnits="userSpaceOnUse" x="2" y="2.6" width="20" height="18.4" id="mask0_2316_585_00000126316428096612435690000012781726197995729545_">
	<rect y="0" class="st0" width="24" height="24"/>
</mask>
<g class="st1">
	<path class="st2" d="M12,21l-1.4-1.3c-1.7-1.5-3.1-2.8-4.2-3.9s-2-2.1-2.6-3s-1.1-1.7-1.4-2.4C2.1,9.7,2,8.9,2,8.1
		c0-1.6,0.5-2.9,1.6-3.9s2.4-1.6,3.9-1.6c0.9,0,1.7,0.2,2.5,0.5c0.8,0.4,1.5,0.9,2,1.5c0.6-0.7,1.2-1.2,2-1.5
		c0.8-0.4,1.6-0.5,2.5-0.5c1.6,0,2.9,0.5,3.9,1.6C21.5,5.3,22,6.6,22,8.1c0,0.8-0.1,1.5-0.4,2.3c-0.3,0.7-0.7,1.5-1.4,2.4
		s-1.5,1.9-2.6,3s-2.5,2.4-4.2,3.9L12,21z"/>
</g>
</svg>
